<svg width="81" height="24" viewBox="0 0 81 24" fill="none" xmlns="http://www.w3.org/2000/svg">
<path fill-rule="evenodd" clip-rule="evenodd" d="M77.3081 8.57912C70.0219 8.82155 69.9545 16.5253 69.9545 16.5253C69.8333 19.2323 71.2609 21.0236 74.5875 20.9966C78.4394 20.9697 80.8098 19.2593 80.8098 19.2593L79.7862 22.101C76.8636 24.0539 73.6178 23.8653 73.0387 23.8249C65.2811 23.3535 65.7929 16.7811 65.7929 16.7811C66.1566 6.49158 75.5707 5.81818 77.2811 5.79124C78.5741 5.77778 79.7862 5.96633 80.7828 6.16835L79.7727 8.70034C78.6279 8.52525 78.0353 8.55219 77.3081 8.57912ZM63.0993 22.6397L58.7222 24L59.1667 21.899H59.1397C58.6145 22.4377 56.7963 23.8384 53.9411 23.8384C50.9646 23.8249 49.0657 22.0337 49.0252 19.8788C48.8636 12 60.8906 12.6465 60.8906 12.6465C60.8906 12.6465 61.2407 11.5152 61.2677 10.6397C61.3081 9.10437 59.665 8.88889 58.1835 8.95623C54.5471 9.11784 51.5572 10.9899 51.5572 10.9899L52.6481 8.12121C56.3518 5.87205 59.1936 5.93939 59.1936 5.93939C66.6683 5.80471 65.3215 11.6229 65.1465 12.4848C64.8771 13.8721 63.0993 22.6397 63.0993 22.6397ZM52.6751 18.8956C52.6751 18.8956 52.5539 20.9562 55.2744 20.9562C57.5909 20.9562 58.8973 19.6633 59.3821 18.8956C59.8535 18.1414 60.2576 16.9832 60.4596 15.2727C60.4596 15.2727 52.8771 14.8822 52.6751 18.8956ZM49.0791 10.5455H45.3754L43.9747 17.6431C43.5976 19.4209 43.2609 21.3603 45.4293 21.3603C47.0185 21.3603 48.3923 20.4848 48.3923 20.4848L47.5572 22.5993C47.005 23.0438 45.6986 23.7845 43.5707 23.8114C38.5202 23.8653 39.2744 20 39.436 19.1785C39.5707 18.4512 41.1195 10.6667 41.1195 10.6667H38.0353L39.1263 7.87879H41.6582L42.0892 5.81818C43.6246 4.75421 45.2542 4.26936 46.0353 4.09428C46.7357 3.94613 46.5741 4.60606 46.5741 4.60606L45.9007 7.78451H50.1566L49.0791 10.5455ZM25.3619 15.9461C25.0522 18.5051 26.0219 20.862 29.6717 20.9697C33.5236 21.0774 36.2172 19.2727 36.2172 19.2727L35.1801 22.1145C35.1801 22.1145 32.2845 24.1751 28.1498 23.7845C20.4057 23.0707 21.0118 16.6061 21.4293 14.6263C23.4226 5.41414 31.032 5.79124 31.032 5.79124C32.8636 5.79124 35.9747 6.24916 36.9848 9.61616C37.7929 12.2828 36.8906 15.9461 36.8906 15.9461H25.3619ZM30.9377 8.95623C27.2879 8.9697 25.9815 13.2256 25.9815 13.2256H33.537C33.6313 12.2963 34.2374 8.95623 30.9377 8.95623ZM12.6212 10.33H20.9848L18.9377 20.7003C16.9714 22.8687 13.8872 24.0269 10.1027 23.9865C1.14646 23.8923 -0.0521941 16.7811 0.00167799 14.0471C0.0959541 9.69697 1.8872 6.00673 5.01178 3.43434C7.74579 1.19865 11.2071 0 15.3148 0C17.0926 0 18.0623 0.0942765 19.4495 0.242425L18.197 3.42088C17.2677 3.35354 16.5673 3.31313 15.8131 3.31313C14.3586 3.31313 12.9848 3.42088 11.2205 4C8.89057 4.80808 4.76935 7.75758 4.67508 13.8316C4.55387 21.7643 12.8502 20.6061 14.9108 18.9899C14.9781 18.6532 16.096 13.1852 16.096 13.1852L16.1229 13.0505H11.5572L12.6212 10.33Z" fill="#DB5120"/>
</svg>
